<mxfile host="app.diagrams.net" modified="2023-10-05T12:25:07.966Z" agent="Mozilla/5.0 (Windows NT 10.0; Win64; x64) AppleWebKit/537.36 (KHTML, like Gecko) Chrome/117.0.0.0 Safari/537.36" etag="MhGuecoqTPfafD4k-g5S" version="22.0.2" type="device">
  <diagram name="Page-1" id="4kDyXjSz5fXzZ2OMG3nY">
    <mxGraphModel dx="3576" dy="2729" grid="1" gridSize="10" guides="1" tooltips="1" connect="1" arrows="1" fold="1" page="1" pageScale="1" pageWidth="850" pageHeight="1100" math="0" shadow="0">
      <root>
        <mxCell id="0" />
        <mxCell id="1" parent="0" />
        <mxCell id="W3cXZW0rzUBnxX037Pdt-1" value="&lt;div style=&quot;display: flex; justify-content: flex-start; text-align: left; align-items: baseline; font-size: 0; line-height: 1.25;margin-top: -2px;&quot;&gt;&lt;span&gt;&lt;span style=&quot;font-size:19px;&quot;&gt;{&#xa;&lt;/span&gt;&lt;/span&gt;&lt;/div&gt;&lt;div style=&quot;display: flex; justify-content: flex-start; text-align: left; align-items: baseline; font-size: 0; line-height: 1.25;margin-top: -2px;&quot;&gt;&lt;span&gt;&lt;span style=&quot;font-size:19px;&quot;&gt;  &quot;_id&quot;: &quot;609d8e1a0e4cf83b3c8866e1&quot;,&#xa;&lt;/span&gt;&lt;/span&gt;&lt;/div&gt;&lt;div style=&quot;display: flex; justify-content: flex-start; text-align: left; align-items: baseline; font-size: 0; line-height: 1.25;margin-top: -2px;&quot;&gt;&lt;span&gt;&lt;span style=&quot;font-size:19px;&quot;&gt;  &quot;username&quot;: &quot;john_doe&quot;,&#xa;&lt;/span&gt;&lt;/span&gt;&lt;/div&gt;&lt;div style=&quot;display: flex; justify-content: flex-start; text-align: left; align-items: baseline; font-size: 0; line-height: 1.25;margin-top: -2px;&quot;&gt;&lt;span&gt;&lt;span style=&quot;font-size:19px;&quot;&gt;  &quot;email&quot;: &quot;john.doe@example.com&quot;,&#xa;&lt;/span&gt;&lt;/span&gt;&lt;/div&gt;&lt;div style=&quot;display: flex; justify-content: flex-start; text-align: left; align-items: baseline; font-size: 0; line-height: 1.25;margin-top: -2px;&quot;&gt;&lt;span&gt;&lt;span style=&quot;font-size:19px;&quot;&gt;  &quot;password&quot;: &quot;hashed_password&quot;,&#xa;&lt;/span&gt;&lt;/span&gt;&lt;/div&gt;&lt;div style=&quot;display: flex; justify-content: flex-start; text-align: left; align-items: baseline; font-size: 0; line-height: 1.25;margin-top: -2px;&quot;&gt;&lt;span&gt;&lt;span style=&quot;font-size:19px;&quot;&gt;  &quot;first_name&quot;: &quot;John&quot;,&#xa;&lt;/span&gt;&lt;/span&gt;&lt;/div&gt;&lt;div style=&quot;display: flex; justify-content: flex-start; text-align: left; align-items: baseline; font-size: 0; line-height: 1.25;margin-top: -2px;&quot;&gt;&lt;span&gt;&lt;span style=&quot;font-size:19px;&quot;&gt;  &quot;last_name&quot;: &quot;Doe&quot;,&#xa;&lt;/span&gt;&lt;/span&gt;&lt;/div&gt;&lt;div style=&quot;display: flex; justify-content: flex-start; text-align: left; align-items: baseline; font-size: 0; line-height: 1.25;margin-top: -2px;&quot;&gt;&lt;span&gt;&lt;span style=&quot;font-size:19px;&quot;&gt;  &quot;date_of_birth&quot;: &quot;1990-05-15&quot;,&#xa;&lt;/span&gt;&lt;/span&gt;&lt;/div&gt;&lt;div style=&quot;display: flex; justify-content: flex-start; text-align: left; align-items: baseline; font-size: 0; line-height: 1.25;margin-top: -2px;&quot;&gt;&lt;span&gt;&lt;span style=&quot;font-size:19px;&quot;&gt;  &quot;address&quot;: {&#xa;&lt;/span&gt;&lt;/span&gt;&lt;/div&gt;&lt;div style=&quot;display: flex; justify-content: flex-start; text-align: left; align-items: baseline; font-size: 0; line-height: 1.25;margin-top: -2px;&quot;&gt;&lt;span&gt;&lt;span style=&quot;font-size:19px;&quot;&gt;    &quot;street&quot;: &quot;123 Main Street&quot;,&#xa;&lt;/span&gt;&lt;/span&gt;&lt;/div&gt;&lt;div style=&quot;display: flex; justify-content: flex-start; text-align: left; align-items: baseline; font-size: 0; line-height: 1.25;margin-top: -2px;&quot;&gt;&lt;span&gt;&lt;span style=&quot;font-size:19px;&quot;&gt;    &quot;city&quot;: &quot;Cape Town&quot;,&#xa;&lt;/span&gt;&lt;/span&gt;&lt;/div&gt;&lt;div style=&quot;display: flex; justify-content: flex-start; text-align: left; align-items: baseline; font-size: 0; line-height: 1.25;margin-top: -2px;&quot;&gt;&lt;span&gt;&lt;span style=&quot;font-size:19px;&quot;&gt;    &quot;province&quot;: &quot;Western Cape&quot;,&#xa;&lt;/span&gt;&lt;/span&gt;&lt;/div&gt;&lt;div style=&quot;display: flex; justify-content: flex-start; text-align: left; align-items: baseline; font-size: 0; line-height: 1.25;margin-top: -2px;&quot;&gt;&lt;span&gt;&lt;span style=&quot;font-size:19px;&quot;&gt;    &quot;postal_code&quot;: &quot;12345&quot;&#xa;&lt;/span&gt;&lt;/span&gt;&lt;/div&gt;&lt;div style=&quot;display: flex; justify-content: flex-start; text-align: left; align-items: baseline; font-size: 0; line-height: 1.25;margin-top: -2px;&quot;&gt;&lt;span&gt;&lt;span style=&quot;font-size:19px;&quot;&gt;  },&#xa;&lt;/span&gt;&lt;/span&gt;&lt;/div&gt;&lt;div style=&quot;display: flex; justify-content: flex-start; text-align: left; align-items: baseline; font-size: 0; line-height: 1.25;margin-top: -2px;&quot;&gt;&lt;span&gt;&lt;span style=&quot;font-size:19px;&quot;&gt;  &quot;phone_number&quot;: &quot;+1 555-123-4567&quot;,&#xa;&lt;/span&gt;&lt;/span&gt;&lt;/div&gt;&lt;div style=&quot;display: flex; justify-content: flex-start; text-align: left; align-items: baseline; font-size: 0; line-height: 1.25;margin-top: -2px;&quot;&gt;&lt;span&gt;&lt;span style=&quot;font-size:19px;&quot;&gt;  &quot;profile_picture&quot;: &quot;https://example.com/profile_picture.jpg&quot;,&#xa;&lt;/span&gt;&lt;/span&gt;&lt;/div&gt;&lt;div style=&quot;display: flex; justify-content: flex-start; text-align: left; align-items: baseline; font-size: 0; line-height: 1.25;margin-top: -2px;&quot;&gt;&lt;span&gt;&lt;span style=&quot;font-size:19px;&quot;&gt;  &quot;role&quot;: &quot;user&quot;,&#xa;&lt;/span&gt;&lt;/span&gt;&lt;/div&gt;&lt;div style=&quot;display: flex; justify-content: flex-start; text-align: left; align-items: baseline; font-size: 0; line-height: 1.25;margin-top: -2px;&quot;&gt;&lt;span&gt;&lt;span style=&quot;font-size:19px;&quot;&gt;  &quot;preferences&quot;: {&#xa;&lt;/span&gt;&lt;/span&gt;&lt;/div&gt;&lt;div style=&quot;display: flex; justify-content: flex-start; text-align: left; align-items: baseline; font-size: 0; line-height: 1.25;margin-top: -2px;&quot;&gt;&lt;span&gt;&lt;span style=&quot;font-size:19px;&quot;&gt;    &quot;language&quot;: &quot;en&quot;,&#xa;&lt;/span&gt;&lt;/span&gt;&lt;/div&gt;&lt;div style=&quot;display: flex; justify-content: flex-start; text-align: left; align-items: baseline; font-size: 0; line-height: 1.25;margin-top: -2px;&quot;&gt;&lt;span&gt;&lt;span style=&quot;font-size:19px;&quot;&gt;    &quot;theme&quot;: &quot;dark&quot;,&#xa;&lt;/span&gt;&lt;/span&gt;&lt;/div&gt;&lt;div style=&quot;display: flex; justify-content: flex-start; text-align: left; align-items: baseline; font-size: 0; line-height: 1.25;margin-top: -2px;&quot;&gt;&lt;span&gt;&lt;span style=&quot;font-size:19px;&quot;&gt;    &quot;notifications&quot;: true&#xa;&lt;/span&gt;&lt;/span&gt;&lt;/div&gt;&lt;div style=&quot;display: flex; justify-content: flex-start; text-align: left; align-items: baseline; font-size: 0; line-height: 1.25;margin-top: -2px;&quot;&gt;&lt;span&gt;&lt;span style=&quot;font-size:19px;&quot;&gt;  },&#xa;&lt;/span&gt;&lt;/span&gt;&lt;/div&gt;&lt;div style=&quot;display: flex; justify-content: flex-start; text-align: left; align-items: baseline; font-size: 0; line-height: 1.25;margin-top: -2px;&quot;&gt;&lt;span&gt;&lt;span style=&quot;font-size:19px;&quot;&gt;  &quot;account_status&quot;: &quot;active&quot;,&#xa;&lt;/span&gt;&lt;/span&gt;&lt;/div&gt;&lt;div style=&quot;display: flex; justify-content: flex-start; text-align: left; align-items: baseline; font-size: 0; line-height: 1.25;margin-top: -2px;&quot;&gt;&lt;span&gt;&lt;span style=&quot;font-size:19px;&quot;&gt;  &quot;last_login&quot;: &quot;2023-09-30T14:20:00Z&quot;,&#xa;&lt;/span&gt;&lt;/span&gt;&lt;/div&gt;&lt;div style=&quot;display: flex; justify-content: flex-start; text-align: left; align-items: baseline; font-size: 0; line-height: 1.25;margin-top: -2px;&quot;&gt;&lt;span&gt;&lt;span style=&quot;font-size:19px;&quot;&gt;  &quot;created_at&quot;: &quot;2023-09-30T10:15:00Z&quot;,&#xa;&lt;/span&gt;&lt;/span&gt;&lt;/div&gt;&lt;div style=&quot;display: flex; justify-content: flex-start; text-align: left; align-items: baseline; font-size: 0; line-height: 1.25;margin-top: -2px;&quot;&gt;&lt;span&gt;&lt;span style=&quot;font-size:19px;&quot;&gt;  &quot;updated_at&quot;: &quot;2023-09-30T14:20:00Z&quot;&#xa;&lt;/span&gt;&lt;/span&gt;&lt;/div&gt;&lt;div style=&quot;display: flex; justify-content: flex-start; text-align: left; align-items: baseline; font-size: 0; line-height: 1.25;margin-top: -2px;&quot;&gt;&lt;span&gt;&lt;span style=&quot;font-size:19px;&quot;&gt;}&lt;/span&gt;&lt;/span&gt;&lt;/div&gt;" style="html=1;overflow=block;blockSpacing=1;whiteSpace=wrap;fontSize=13;spacing=3.8;verticalAlign=middle;strokeOpacity=0;fillOpacity=0;rounded=1;absoluteArcSize=1;arcSize=9;fillColor=#ffffff;strokeWidth=0.8;lucidId=Iu.AA-wMIjXI;" vertex="1" parent="1">
          <mxGeometry x="630" y="-795" width="373" height="763" as="geometry" />
        </mxCell>
        <mxCell id="W3cXZW0rzUBnxX037Pdt-2" value="Text" style="html=1;overflow=block;blockSpacing=1;whiteSpace=wrap;fontSize=16.7;fontColor=#3a414a;spacing=3.8;strokeOpacity=0;fillOpacity=0;rounded=1;absoluteArcSize=1;arcSize=9;fillColor=#ffffff;strokeWidth=0.8;lucidId=Iu.AR_8Cf6O0;" vertex="1" parent="1">
          <mxGeometry x="670" y="-90" width="180" height="45" as="geometry" />
        </mxCell>
        <mxCell id="W3cXZW0rzUBnxX037Pdt-3" value="HTTPS://&amp;lt;DOMAIN&amp;gt;/signUp" style="html=1;overflow=block;blockSpacing=1;whiteSpace=wrap;fontSize=26.7;fontColor=#3a414a;spacing=3.8;strokeOpacity=0;fillOpacity=0;rounded=1;absoluteArcSize=1;arcSize=9;fillColor=#ffffff;strokeWidth=0.8;lucidId=Iu.A4wAYV7u4;" vertex="1" parent="1">
          <mxGeometry x="68" y="-460" width="360" height="45" as="geometry" />
        </mxCell>
        <mxCell id="W3cXZW0rzUBnxX037Pdt-4" value="" style="html=1;overflow=block;blockSpacing=1;whiteSpace=wrap;fontSize=13;spacing=3.8;strokeColor=#3a414a;strokeOpacity=100;rounded=1;absoluteArcSize=1;arcSize=9;strokeWidth=0.8;lucidId=Iu.AfpCWvqnx;" vertex="1" parent="1">
          <mxGeometry x="-607" y="-490" width="315" height="150" as="geometry" />
        </mxCell>
        <mxCell id="W3cXZW0rzUBnxX037Pdt-5" value="POST user data to user file" style="html=1;overflow=block;blockSpacing=1;whiteSpace=wrap;fontSize=21.7;fontColor=#3a414a;spacing=3.8;strokeOpacity=0;fillOpacity=0;rounded=1;absoluteArcSize=1;arcSize=9;fillColor=#ffffff;strokeWidth=0.8;lucidId=Iu.ANQlsZvO4;" vertex="1" parent="1">
          <mxGeometry x="-217" y="-460" width="180" height="60" as="geometry" />
        </mxCell>
        <mxCell id="W3cXZW0rzUBnxX037Pdt-6" value="" style="html=1;overflow=block;blockSpacing=1;whiteSpace=wrap;fontSize=13;spacing=3.8;strokeColor=#3a414a;strokeOpacity=100;rounded=1;absoluteArcSize=1;arcSize=9;strokeWidth=0.8;lucidId=Iu.AEXtKvZHL;" vertex="1" parent="1">
          <mxGeometry x="-607" y="-295" width="315" height="150" as="geometry" />
        </mxCell>
        <mxCell id="W3cXZW0rzUBnxX037Pdt-7" value="GET user data to perform user authentication" style="html=1;overflow=block;blockSpacing=1;whiteSpace=wrap;fontSize=21.7;fontColor=#3a414a;spacing=3.8;strokeOpacity=0;fillOpacity=0;rounded=1;absoluteArcSize=1;arcSize=9;fillColor=#ffffff;strokeWidth=0.8;lucidId=Iu.AXygXHq0N;" vertex="1" parent="1">
          <mxGeometry x="-217" y="-247" width="180" height="86" as="geometry" />
        </mxCell>
        <mxCell id="W3cXZW0rzUBnxX037Pdt-8" value="HTTPS://&amp;lt;DOMAIN&amp;gt;/signUp" style="html=1;overflow=block;blockSpacing=1;whiteSpace=wrap;fontSize=26.7;fontColor=#3a414a;spacing=3.8;strokeOpacity=0;fillOpacity=0;rounded=1;absoluteArcSize=1;arcSize=9;fillColor=#ffffff;strokeWidth=0.8;lucidId=Iu.AAHxZxyAc;" vertex="1" parent="1">
          <mxGeometry x="68" y="-250" width="360" height="45" as="geometry" />
        </mxCell>
        <mxCell id="W3cXZW0rzUBnxX037Pdt-9" value="HTTPS://&amp;lt;DOMAIN&amp;gt;/community&#39;s" style="html=1;overflow=block;blockSpacing=1;whiteSpace=wrap;fontSize=26.7;fontColor=#3a414a;spacing=3.8;strokeOpacity=0;fillOpacity=0;rounded=1;absoluteArcSize=1;arcSize=9;fillColor=#ffffff;strokeWidth=0.8;lucidId=Iu.Ak0C3fqw6;" vertex="1" parent="1">
          <mxGeometry x="68" y="-32" width="435" height="60" as="geometry" />
        </mxCell>
        <mxCell id="W3cXZW0rzUBnxX037Pdt-10" value="" style="html=1;overflow=block;blockSpacing=1;whiteSpace=wrap;fontSize=13;spacing=3.8;strokeColor=#3a414a;strokeOpacity=100;rounded=1;absoluteArcSize=1;arcSize=9;strokeWidth=0.8;lucidId=Iu.AIVSMGCmG;" vertex="1" parent="1">
          <mxGeometry x="-607" y="-85" width="315" height="150" as="geometry" />
        </mxCell>
        <mxCell id="W3cXZW0rzUBnxX037Pdt-11" value="GET community&#39;s data" style="html=1;overflow=block;blockSpacing=1;whiteSpace=wrap;fontSize=21.7;fontColor=#3a414a;spacing=3.8;strokeOpacity=0;fillOpacity=0;rounded=1;absoluteArcSize=1;arcSize=9;fillColor=#ffffff;strokeWidth=0.8;lucidId=Iu.AT1_1gLL8;" vertex="1" parent="1">
          <mxGeometry x="-217" y="-55" width="180" height="86" as="geometry" />
        </mxCell>
        <mxCell id="W3cXZW0rzUBnxX037Pdt-12" value="" style="html=1;overflow=block;blockSpacing=1;whiteSpace=wrap;fontSize=13;spacing=3.8;strokeColor=#3a414a;strokeOpacity=100;rounded=1;absoluteArcSize=1;arcSize=9;strokeWidth=0.8;lucidId=Iu.AWKv4t_mt;" vertex="1" parent="1">
          <mxGeometry x="-607" y="140" width="315" height="150" as="geometry" />
        </mxCell>
        <mxCell id="W3cXZW0rzUBnxX037Pdt-13" value="GET previouse post data" style="html=1;overflow=block;blockSpacing=1;whiteSpace=wrap;fontSize=21.7;fontColor=#3a414a;spacing=3.8;strokeOpacity=0;fillOpacity=0;rounded=1;absoluteArcSize=1;arcSize=9;fillColor=#ffffff;strokeWidth=0.8;lucidId=Iu.AoO8-eXzU;" vertex="1" parent="1">
          <mxGeometry x="-215" y="154" width="180" height="86" as="geometry" />
        </mxCell>
        <mxCell id="W3cXZW0rzUBnxX037Pdt-14" value="POST  new post data" style="html=1;overflow=block;blockSpacing=1;whiteSpace=wrap;fontSize=21.7;fontColor=#3a414a;spacing=3.8;strokeOpacity=0;fillOpacity=0;rounded=1;absoluteArcSize=1;arcSize=9;fillColor=#ffffff;strokeWidth=0.8;lucidId=Iu.Aj~a.TJmA;" vertex="1" parent="1">
          <mxGeometry x="-215" y="239" width="180" height="60" as="geometry" />
        </mxCell>
        <mxCell id="W3cXZW0rzUBnxX037Pdt-15" value="HTTPS://&amp;lt;DOMAIN&amp;gt;/postData" style="html=1;overflow=block;blockSpacing=1;whiteSpace=wrap;fontSize=26.7;fontColor=#3a414a;spacing=3.8;strokeOpacity=0;fillOpacity=0;rounded=1;absoluteArcSize=1;arcSize=9;fillColor=#ffffff;strokeWidth=0.8;lucidId=Iu.A34iJH5pe;" vertex="1" parent="1">
          <mxGeometry x="68" y="255" width="435" height="60" as="geometry" />
        </mxCell>
        <mxCell id="W3cXZW0rzUBnxX037Pdt-16" value="Law page" style="html=1;overflow=block;blockSpacing=1;whiteSpace=wrap;fontSize=16.7;fontColor=#3a414a;spacing=3.8;strokeColor=#3a414a;strokeOpacity=100;rounded=1;absoluteArcSize=1;arcSize=9;strokeWidth=0.8;lucidId=Iu.AsCGrx_RT;" vertex="1" parent="1">
          <mxGeometry x="-607" y="350" width="315" height="150" as="geometry" />
        </mxCell>
        <mxCell id="W3cXZW0rzUBnxX037Pdt-17" value="GET post data" style="html=1;overflow=block;blockSpacing=1;whiteSpace=wrap;fontSize=21.7;fontColor=#3a414a;spacing=3.8;strokeOpacity=0;fillOpacity=0;rounded=1;absoluteArcSize=1;arcSize=9;fillColor=#ffffff;strokeWidth=0.8;lucidId=Iu.ARHaKid4.;" vertex="1" parent="1">
          <mxGeometry x="-217" y="350" width="180" height="86" as="geometry" />
        </mxCell>
        <mxCell id="W3cXZW0rzUBnxX037Pdt-18" value="POST Law  post selection data" style="html=1;overflow=block;blockSpacing=1;whiteSpace=wrap;fontSize=21.7;fontColor=#3a414a;spacing=3.8;strokeOpacity=0;fillOpacity=0;rounded=1;absoluteArcSize=1;arcSize=9;fillColor=#ffffff;strokeWidth=0.8;lucidId=Iu.AQAMAyLil;" vertex="1" parent="1">
          <mxGeometry x="-215" y="435" width="180" height="60" as="geometry" />
        </mxCell>
        <mxCell id="W3cXZW0rzUBnxX037Pdt-19" value="HTTPS://&amp;lt;DOMAIN&amp;gt;/postData" style="html=1;overflow=block;blockSpacing=1;whiteSpace=wrap;fontSize=26.7;fontColor=#3a414a;spacing=3.8;strokeOpacity=0;fillOpacity=0;rounded=1;absoluteArcSize=1;arcSize=9;fillColor=#ffffff;strokeWidth=0.8;lucidId=Iu.A-Fi-i37i;" vertex="1" parent="1">
          <mxGeometry x="68" y="363" width="435" height="60" as="geometry" />
        </mxCell>
        <mxCell id="W3cXZW0rzUBnxX037Pdt-20" value="HTTPS://&amp;lt;DOMAIN&amp;gt;/eventLog" style="html=1;overflow=block;blockSpacing=1;whiteSpace=wrap;fontSize=26.7;fontColor=#3a414a;spacing=3.8;strokeOpacity=0;fillOpacity=0;rounded=1;absoluteArcSize=1;arcSize=9;fillColor=#ffffff;strokeWidth=0.8;lucidId=Iu.A.pEPAJsQ;" vertex="1" parent="1">
          <mxGeometry x="68" y="435" width="435" height="60" as="geometry" />
        </mxCell>
        <mxCell id="W3cXZW0rzUBnxX037Pdt-21" value="Admin page" style="html=1;overflow=block;blockSpacing=1;whiteSpace=wrap;fontSize=16.7;fontColor=#3a414a;spacing=3.8;strokeColor=#3a414a;strokeOpacity=100;rounded=1;absoluteArcSize=1;arcSize=9;strokeWidth=0.8;lucidId=Iu.ATxj9GcM2;" vertex="1" parent="1">
          <mxGeometry x="-607" y="588" width="315" height="150" as="geometry" />
        </mxCell>
        <mxCell id="W3cXZW0rzUBnxX037Pdt-22" value="POST data to all files" style="html=1;overflow=block;blockSpacing=1;whiteSpace=wrap;fontSize=21.7;fontColor=#3a414a;spacing=3.8;strokeOpacity=0;fillOpacity=0;rounded=1;absoluteArcSize=1;arcSize=9;fillColor=#ffffff;strokeWidth=0.8;lucidId=Iu.A3biK.VlD;" vertex="1" parent="1">
          <mxGeometry x="-217" y="635" width="180" height="60" as="geometry" />
        </mxCell>
        <mxCell id="W3cXZW0rzUBnxX037Pdt-23" value="GET data from allfiles" style="html=1;overflow=block;blockSpacing=1;whiteSpace=wrap;fontSize=21.7;fontColor=#3a414a;spacing=3.8;strokeOpacity=0;fillOpacity=0;rounded=1;absoluteArcSize=1;arcSize=9;fillColor=#ffffff;strokeWidth=0.8;lucidId=Iu.AA_YWATgu;" vertex="1" parent="1">
          <mxGeometry x="-215" y="560" width="180" height="86" as="geometry" />
        </mxCell>
        <mxCell id="W3cXZW0rzUBnxX037Pdt-24" value="Delete data from all files" style="html=1;overflow=block;blockSpacing=1;whiteSpace=wrap;fontSize=21.7;fontColor=#3a414a;spacing=3.8;strokeOpacity=0;fillOpacity=0;rounded=1;absoluteArcSize=1;arcSize=9;fillColor=#ffffff;strokeWidth=0.8;lucidId=Iu.Af93UxQvh;" vertex="1" parent="1">
          <mxGeometry x="-215" y="704" width="180" height="60" as="geometry" />
        </mxCell>
        <mxCell id="W3cXZW0rzUBnxX037Pdt-25" value="UPDATE data from all files" style="html=1;overflow=block;blockSpacing=1;whiteSpace=wrap;fontSize=21.7;fontColor=#3a414a;spacing=3.8;strokeOpacity=0;fillOpacity=0;rounded=1;absoluteArcSize=1;arcSize=9;fillColor=#ffffff;strokeWidth=0.8;lucidId=Iu.Ad7uC8W-B;" vertex="1" parent="1">
          <mxGeometry x="-217" y="785" width="180" height="60" as="geometry" />
        </mxCell>
        <mxCell id="W3cXZW0rzUBnxX037Pdt-26" value="Sign Up Page" style="html=1;overflow=block;blockSpacing=1;whiteSpace=wrap;fontSize=16.7;fontColor=#333333;spacing=3.8;strokeOpacity=0;fillOpacity=0;rounded=1;absoluteArcSize=1;arcSize=9;fillColor=#ffffff;strokeWidth=2.3;lucidId=Nw.AQVMrBLFb;" vertex="1" parent="1">
          <mxGeometry x="-540" y="-535" width="180" height="45" as="geometry" />
        </mxCell>
        <mxCell id="W3cXZW0rzUBnxX037Pdt-27" value="" style="html=1;overflow=block;blockSpacing=1;whiteSpace=wrap;fontSize=13;spacing=9;strokeColor=#5e5e5e;strokeOpacity=100;rounded=1;absoluteArcSize=1;arcSize=9;strokeWidth=2.3;lucidId=zx.A6rc2cNQw;" vertex="1" parent="1">
          <mxGeometry x="-540" y="-478" width="180" height="125" as="geometry" />
        </mxCell>
        <mxCell id="W3cXZW0rzUBnxX037Pdt-28" value="Register" style="html=1;overflow=block;blockSpacing=1;whiteSpace=wrap;fontSize=16.7;fontColor=#333333;spacing=3.8;strokeOpacity=0;fillOpacity=0;rounded=1;absoluteArcSize=1;arcSize=9;fillColor=#ffffff;strokeWidth=2.3;lucidId=Az.AU1qnj4mQ;" vertex="1" parent="1">
          <mxGeometry x="-540" y="-483" width="180" height="45" as="geometry" />
        </mxCell>
        <mxCell id="W3cXZW0rzUBnxX037Pdt-29" value="" style="html=1;overflow=block;blockSpacing=1;whiteSpace=wrap;fontSize=13;spacing=3.8;strokeColor=#5e5e5e;strokeOpacity=100;rounded=1;absoluteArcSize=1;arcSize=9;strokeWidth=2.3;lucidId=jA.AoNMEXTN4;" vertex="1" parent="1">
          <mxGeometry x="-506" y="-445" width="113" height="15" as="geometry" />
        </mxCell>
        <mxCell id="W3cXZW0rzUBnxX037Pdt-30" value="&lt;div style=&quot;display: flex; justify-content: flex-start; text-align: left; align-items: baseline; font-size: 0; line-height: 1.25;margin-top: -2px;&quot;&gt;&lt;span&gt;&lt;span style=&quot;font-size:16.7px;&quot;&gt;{&#xa;&lt;/span&gt;&lt;/span&gt;&lt;/div&gt;&lt;div style=&quot;display: flex; justify-content: flex-start; text-align: left; align-items: baseline; font-size: 0; line-height: 1.25;margin-top: -2px;&quot;&gt;&lt;span&gt;&lt;span style=&quot;font-size:16.7px;&quot;&gt;  &quot;_id&quot;: ObjectId(&quot;5f43a6aaba0ce9a0452872f5&quot;), &#xa;&lt;/span&gt;&lt;/span&gt;&lt;/div&gt;&lt;div style=&quot;display: flex; justify-content: flex-start; text-align: left; align-items: baseline; font-size: 0; line-height: 1.25;margin-top: -2px;&quot;&gt;&lt;span&gt;&lt;span style=&quot;font-size:16.7px;&quot;&gt;  &quot;userId&quot;: ObjectId(&quot;5f43a6aaba0ce9a0452872f4&quot;), &#xa;&lt;/span&gt;&lt;/span&gt;&lt;/div&gt;&lt;div style=&quot;display: flex; justify-content: flex-start; text-align: left; align-items: baseline; font-size: 0; line-height: 1.25;margin-top: -2px;&quot;&gt;&lt;span&gt;&lt;span style=&quot;font-size:16.7px;&quot;&gt;  &quot;timestamp&quot;: ISODate(&quot;2023-09-29T14:30:00Z&quot;), &#xa;&lt;/span&gt;&lt;/span&gt;&lt;/div&gt;&lt;div style=&quot;display: flex; justify-content: flex-start; text-align: left; align-items: baseline; font-size: 0; line-height: 1.25;margin-top: -2px;&quot;&gt;&lt;span&gt;&lt;span style=&quot;font-size:16.7px;&quot;&gt;  &quot;content&quot;: &quot;Just saw a suspicious person near the park. Be cautious, everyone!&quot;,&#xa;&lt;/span&gt;&lt;/span&gt;&lt;/div&gt;&lt;div style=&quot;display: flex; justify-content: flex-start; text-align: left; align-items: baseline; font-size: 0; line-height: 1.25;margin-top: -2px;&quot;&gt;&lt;span&gt;&lt;span style=&quot;font-size:16.7px;&quot;&gt;  &quot;location&quot;: {&#xa;&lt;/span&gt;&lt;/span&gt;&lt;/div&gt;&lt;div style=&quot;display: flex; justify-content: flex-start; text-align: left; align-items: baseline; font-size: 0; line-height: 1.25;margin-top: -2px;&quot;&gt;&lt;span&gt;&lt;span style=&quot;font-size:16.7px;&quot;&gt;    &quot;latitude&quot;: 37.12345,&#xa;&lt;/span&gt;&lt;/span&gt;&lt;/div&gt;&lt;div style=&quot;display: flex; justify-content: flex-start; text-align: left; align-items: baseline; font-size: 0; line-height: 1.25;margin-top: -2px;&quot;&gt;&lt;span&gt;&lt;span style=&quot;font-size:16.7px;&quot;&gt;    &quot;longitude&quot;: -122.54321&#xa;&lt;/span&gt;&lt;/span&gt;&lt;/div&gt;&lt;div style=&quot;display: flex; justify-content: flex-start; text-align: left; align-items: baseline; font-size: 0; line-height: 1.25;margin-top: -2px;&quot;&gt;&lt;span&gt;&lt;span style=&quot;font-size:16.7px;&quot;&gt;  },&#xa;&lt;/span&gt;&lt;/span&gt;&lt;/div&gt;&lt;div style=&quot;display: flex; justify-content: flex-start; text-align: left; align-items: baseline; font-size: 0; line-height: 1.25;margin-top: -2px;&quot;&gt;&lt;span&gt;&lt;span style=&quot;font-size:16.7px;&quot;&gt;  &quot;tags&quot;: [&quot;suspicious activity&quot;, &quot;safety&quot;, &quot;community&quot;]&#xa;&lt;/span&gt;&lt;/span&gt;&lt;/div&gt;&lt;div style=&quot;display: flex; justify-content: flex-start; text-align: left; align-items: baseline; font-size: 0; line-height: 1.25;margin-top: -2px;&quot;&gt;&lt;span&gt;&lt;span style=&quot;font-size:16.7px;&quot;&gt;}&lt;/span&gt;&lt;/span&gt;&lt;/div&gt;" style="html=1;overflow=block;blockSpacing=1;whiteSpace=wrap;fontSize=13;spacing=3.8;verticalAlign=middle;strokeOpacity=0;fillOpacity=0;rounded=1;absoluteArcSize=1;arcSize=9;fillColor=#ffffff;strokeWidth=2.3;lucidId=vA.Aj14u5_bb;" vertex="1" parent="1">
          <mxGeometry x="1140" y="-700" width="420" height="255" as="geometry" />
        </mxCell>
        <mxCell id="W3cXZW0rzUBnxX037Pdt-31" value="" style="html=1;overflow=block;blockSpacing=1;whiteSpace=wrap;fontSize=13;spacing=3.8;strokeColor=#5e5e5e;strokeOpacity=100;rounded=1;absoluteArcSize=1;arcSize=9;strokeWidth=2.3;lucidId=iB.A0tXjtnhl;" vertex="1" parent="1">
          <mxGeometry x="-506" y="-423" width="113" height="15" as="geometry" />
        </mxCell>
        <mxCell id="W3cXZW0rzUBnxX037Pdt-32" value="" style="html=1;overflow=block;blockSpacing=1;whiteSpace=wrap;fontSize=13;spacing=3.8;strokeColor=#5e5e5e;strokeOpacity=100;rounded=1;absoluteArcSize=1;arcSize=9;strokeWidth=2.3;lucidId=yB.Ajd89_q8s;" vertex="1" parent="1">
          <mxGeometry x="-506" y="-401" width="113" height="16" as="geometry" />
        </mxCell>
        <mxCell id="W3cXZW0rzUBnxX037Pdt-33" value="" style="html=1;overflow=block;blockSpacing=1;whiteSpace=wrap;fontSize=13;spacing=3.8;strokeColor=#5e5e5e;strokeOpacity=100;rounded=1;absoluteArcSize=1;arcSize=9;strokeWidth=2.3;lucidId=NB.AhC45gq1I;" vertex="1" parent="1">
          <mxGeometry x="-465" y="-377" width="30" height="20" as="geometry" />
        </mxCell>
        <mxCell id="W3cXZW0rzUBnxX037Pdt-34" value="Confirm" style="html=1;overflow=block;blockSpacing=1;whiteSpace=wrap;fontSize=6.7;fontColor=#333333;fontStyle=1;spacing=3.8;strokeOpacity=0;fillOpacity=0;rounded=1;absoluteArcSize=1;arcSize=9;fillColor=#ffffff;strokeWidth=2.3;lucidId=FC.Aw5CP98QP;" vertex="1" parent="1">
          <mxGeometry x="-487" y="-381" width="75" height="27" as="geometry" />
        </mxCell>
        <mxCell id="W3cXZW0rzUBnxX037Pdt-35" value="Login Page" style="html=1;overflow=block;blockSpacing=1;whiteSpace=wrap;fontSize=16.7;fontColor=#333333;spacing=3.8;strokeOpacity=0;fillOpacity=0;rounded=1;absoluteArcSize=1;arcSize=9;fillColor=#ffffff;strokeWidth=2.3;lucidId=SD.An5uR-G4G;" vertex="1" parent="1">
          <mxGeometry x="-540" y="-330" width="180" height="45" as="geometry" />
        </mxCell>
        <mxCell id="W3cXZW0rzUBnxX037Pdt-36" value="" style="html=1;overflow=block;blockSpacing=1;whiteSpace=wrap;fontSize=13;spacing=9;strokeColor=#5e5e5e;strokeOpacity=100;rounded=1;absoluteArcSize=1;arcSize=9;strokeWidth=2.3;lucidId=eE.AZpchv-NK;" vertex="1" parent="1">
          <mxGeometry x="-540" y="-283" width="180" height="125" as="geometry" />
        </mxCell>
        <mxCell id="W3cXZW0rzUBnxX037Pdt-37" value="&lt;div style=&quot;display: flex; justify-content: flex-start; text-align: left; align-items: baseline; font-size: 0; line-height: 1.25;margin-top: -2px;&quot;&gt;&lt;span&gt;&lt;span style=&quot;font-size:18.3px;&quot;&gt;{&#xa;&lt;/span&gt;&lt;/span&gt;&lt;/div&gt;&lt;div style=&quot;display: flex; justify-content: flex-start; text-align: left; align-items: baseline; font-size: 0; line-height: 1.25;margin-top: -2px;&quot;&gt;&lt;span&gt;&lt;span style=&quot;font-size:18.3px;&quot;&gt;  &quot;_id&quot;: ObjectId(&quot;5f43a6aaba0ce9a0452872f6&quot;), &#xa;&lt;/span&gt;&lt;/span&gt;&lt;/div&gt;&lt;div style=&quot;display: flex; justify-content: flex-start; text-align: left; align-items: baseline; font-size: 0; line-height: 1.25;margin-top: -2px;&quot;&gt;&lt;span&gt;&lt;span style=&quot;font-size:18.3px;&quot;&gt;  &quot;name&quot;: &quot;Oakwood Heights&quot;,&#xa;&lt;/span&gt;&lt;/span&gt;&lt;/div&gt;&lt;div style=&quot;display: flex; justify-content: flex-start; text-align: left; align-items: baseline; font-size: 0; line-height: 1.25;margin-top: -2px;&quot;&gt;&lt;span&gt;&lt;span style=&quot;font-size:18.3px;&quot;&gt;  &quot;city&quot;: &quot;Cityville&quot;,&#xa;&lt;/span&gt;&lt;/span&gt;&lt;/div&gt;&lt;div style=&quot;display: flex; justify-content: flex-start; text-align: left; align-items: baseline; font-size: 0; line-height: 1.25;margin-top: -2px;&quot;&gt;&lt;span&gt;&lt;span style=&quot;font-size:18.3px;&quot;&gt;  &quot;province&quot;: &quot;Western Cape&quot;,&#xa;&lt;/span&gt;&lt;/span&gt;&lt;/div&gt;&lt;div style=&quot;display: flex; justify-content: flex-start; text-align: left; align-items: baseline; font-size: 0; line-height: 1.25;margin-top: -2px;&quot;&gt;&lt;span&gt;&lt;span style=&quot;font-size:18.3px;&quot;&gt;  &quot;postalCode&quot;: &quot;12345&quot;,&#xa;&lt;/span&gt;&lt;/span&gt;&lt;/div&gt;&lt;div style=&quot;display: flex; justify-content: flex-start; text-align: left; align-items: baseline; font-size: 0; line-height: 1.25;margin-top: -2px;&quot;&gt;&lt;span&gt;&lt;span style=&quot;font-size:18.3px;&quot;&gt;  &quot;description&quot;: &quot;A peaceful suburban neighborhood with lush parks and friendly neighbors.&quot;,&#xa;&lt;/span&gt;&lt;/span&gt;&lt;/div&gt;&lt;div style=&quot;display: flex; justify-content: flex-start; text-align: left; align-items: baseline; font-size: 0; line-height: 1.25;margin-top: -2px;&quot;&gt;&lt;span&gt;&lt;span style=&quot;font-size:18.3px;&quot;&gt;  &quot;coordinates&quot;: {&#xa;&lt;/span&gt;&lt;/span&gt;&lt;/div&gt;&lt;div style=&quot;display: flex; justify-content: flex-start; text-align: left; align-items: baseline; font-size: 0; line-height: 1.25;margin-top: -2px;&quot;&gt;&lt;span&gt;&lt;span style=&quot;font-size:18.3px;&quot;&gt;    &quot;latitude&quot;: 37.7890,&#xa;&lt;/span&gt;&lt;/span&gt;&lt;/div&gt;&lt;div style=&quot;display: flex; justify-content: flex-start; text-align: left; align-items: baseline; font-size: 0; line-height: 1.25;margin-top: -2px;&quot;&gt;&lt;span&gt;&lt;span style=&quot;font-size:18.3px;&quot;&gt;    &quot;longitude&quot;: -122.4305&#xa;&lt;/span&gt;&lt;/span&gt;&lt;/div&gt;&lt;div style=&quot;display: flex; justify-content: flex-start; text-align: left; align-items: baseline; font-size: 0; line-height: 1.25;margin-top: -2px;&quot;&gt;&lt;span&gt;&lt;span style=&quot;font-size:18.3px;&quot;&gt;  }&lt;/span&gt;&lt;/span&gt;&lt;/div&gt;" style="html=1;overflow=block;blockSpacing=1;whiteSpace=wrap;fontSize=13;spacing=3.8;verticalAlign=middle;strokeOpacity=0;fillOpacity=0;rounded=1;absoluteArcSize=1;arcSize=9;fillColor=#ffffff;strokeWidth=2.3;lucidId=hE.Az2iLLwkF;" vertex="1" parent="1">
          <mxGeometry x="1140" y="-405" width="420" height="285" as="geometry" />
        </mxCell>
        <mxCell id="W3cXZW0rzUBnxX037Pdt-38" value="Login" style="html=1;overflow=block;blockSpacing=1;whiteSpace=wrap;fontSize=16.7;fontColor=#333333;spacing=3.8;strokeOpacity=0;fillOpacity=0;rounded=1;absoluteArcSize=1;arcSize=9;fillColor=#ffffff;strokeWidth=2.3;lucidId=kE.ALbnjWTQP;" vertex="1" parent="1">
          <mxGeometry x="-540" y="-285" width="180" height="45" as="geometry" />
        </mxCell>
        <mxCell id="W3cXZW0rzUBnxX037Pdt-39" value="" style="html=1;overflow=block;blockSpacing=1;whiteSpace=wrap;fontSize=13;spacing=3.8;strokeColor=#5e5e5e;strokeOpacity=100;rounded=1;absoluteArcSize=1;arcSize=9;strokeWidth=2.3;lucidId=BE.Aw_eUpCLy;" vertex="1" parent="1">
          <mxGeometry x="-506" y="-240" width="113" height="15" as="geometry" />
        </mxCell>
        <mxCell id="W3cXZW0rzUBnxX037Pdt-40" value="" style="html=1;overflow=block;blockSpacing=1;whiteSpace=wrap;fontSize=13;spacing=3.8;strokeColor=#5e5e5e;strokeOpacity=100;rounded=1;absoluteArcSize=1;arcSize=9;strokeWidth=2.3;lucidId=HE.ApFR0DnYR;" vertex="1" parent="1">
          <mxGeometry x="-506" y="-212" width="113" height="15" as="geometry" />
        </mxCell>
        <mxCell id="W3cXZW0rzUBnxX037Pdt-41" value="" style="html=1;overflow=block;blockSpacing=1;whiteSpace=wrap;fontSize=13;spacing=3.8;strokeColor=#5e5e5e;strokeOpacity=100;rounded=1;absoluteArcSize=1;arcSize=9;strokeWidth=2.3;lucidId=8E.AbcnmyOax;" vertex="1" parent="1">
          <mxGeometry x="-465" y="-183" width="30" height="20" as="geometry" />
        </mxCell>
        <mxCell id="W3cXZW0rzUBnxX037Pdt-42" value="Confirm" style="html=1;overflow=block;blockSpacing=1;whiteSpace=wrap;fontSize=6.7;fontColor=#333333;fontStyle=1;spacing=3.8;strokeOpacity=0;fillOpacity=0;rounded=1;absoluteArcSize=1;arcSize=9;fillColor=#ffffff;strokeWidth=2.3;lucidId=6F.AJrgfe1az;" vertex="1" parent="1">
          <mxGeometry x="-487" y="-187" width="75" height="27" as="geometry" />
        </mxCell>
        <mxCell id="W3cXZW0rzUBnxX037Pdt-43" value="Home Page" style="html=1;overflow=block;blockSpacing=1;whiteSpace=wrap;fontSize=16.7;fontColor=#333333;spacing=3.8;strokeOpacity=0;fillOpacity=0;rounded=1;absoluteArcSize=1;arcSize=9;fillColor=#ffffff;strokeWidth=2.3;lucidId=uG.A5UXUJKnS;" vertex="1" parent="1">
          <mxGeometry x="-540" y="-120" width="180" height="45" as="geometry" />
        </mxCell>
        <mxCell id="W3cXZW0rzUBnxX037Pdt-44" value="" style="html=1;overflow=block;blockSpacing=1;whiteSpace=wrap;fontSize=13;spacing=9;strokeColor=#5e5e5e;strokeOpacity=100;rounded=1;absoluteArcSize=1;arcSize=9;strokeWidth=2.3;lucidId=QG.APPNTu5.P;" vertex="1" parent="1">
          <mxGeometry x="-607" y="-85" width="101" height="150" as="geometry" />
        </mxCell>
        <mxCell id="W3cXZW0rzUBnxX037Pdt-45" value="A" style="html=1;overflow=block;blockSpacing=1;whiteSpace=wrap;ellipse;fontSize=16.7;fontColor=#333333;spacing=3.8;strokeColor=#5e5e5e;strokeOpacity=100;rounded=1;absoluteArcSize=1;arcSize=9;strokeWidth=2.3;lucidId=-G.AEg1KSxJ4;" vertex="1" parent="1">
          <mxGeometry x="-480" y="-40" width="38" height="35" as="geometry" />
        </mxCell>
        <mxCell id="W3cXZW0rzUBnxX037Pdt-46" value="Community Dashboard" style="html=1;overflow=block;blockSpacing=1;whiteSpace=wrap;fontSize=16.7;fontColor=#333333;spacing=3.8;strokeOpacity=0;fillOpacity=0;rounded=1;absoluteArcSize=1;arcSize=9;fillColor=#ffffff;strokeWidth=2.3;lucidId=_G.A0jGuF8lz;" vertex="1" parent="1">
          <mxGeometry x="-487" y="-85" width="180" height="45" as="geometry" />
        </mxCell>
        <mxCell id="W3cXZW0rzUBnxX037Pdt-47" value="B" style="html=1;overflow=block;blockSpacing=1;whiteSpace=wrap;ellipse;fontSize=16.7;fontColor=#333333;spacing=3.8;strokeColor=#5e5e5e;strokeOpacity=100;rounded=1;absoluteArcSize=1;arcSize=9;strokeWidth=2.3;lucidId=SH.AgdMWRdDg;" vertex="1" parent="1">
          <mxGeometry x="-412" y="-40" width="38" height="35" as="geometry" />
        </mxCell>
        <mxCell id="W3cXZW0rzUBnxX037Pdt-48" value="C" style="html=1;overflow=block;blockSpacing=1;whiteSpace=wrap;ellipse;fontSize=16.7;fontColor=#333333;spacing=3.8;strokeColor=#5e5e5e;strokeOpacity=100;rounded=1;absoluteArcSize=1;arcSize=9;strokeWidth=2.3;lucidId=XH.AG4RxPZ76;" vertex="1" parent="1">
          <mxGeometry x="-345" y="-40" width="38" height="35" as="geometry" />
        </mxCell>
        <mxCell id="W3cXZW0rzUBnxX037Pdt-49" value="D" style="html=1;overflow=block;blockSpacing=1;whiteSpace=wrap;ellipse;fontSize=16.7;fontColor=#333333;spacing=3.8;strokeColor=#5e5e5e;strokeOpacity=100;rounded=1;absoluteArcSize=1;arcSize=9;strokeWidth=2.3;lucidId=fI.A~kMA_~nP;" vertex="1" parent="1">
          <mxGeometry x="-480" y="15" width="38" height="35" as="geometry" />
        </mxCell>
        <mxCell id="W3cXZW0rzUBnxX037Pdt-50" value="E" style="html=1;overflow=block;blockSpacing=1;whiteSpace=wrap;ellipse;fontSize=16.7;fontColor=#333333;spacing=3.8;strokeColor=#5e5e5e;strokeOpacity=100;rounded=1;absoluteArcSize=1;arcSize=9;strokeWidth=2.3;lucidId=kI.Ary0rr45w;" vertex="1" parent="1">
          <mxGeometry x="-412" y="15" width="38" height="35" as="geometry" />
        </mxCell>
        <mxCell id="W3cXZW0rzUBnxX037Pdt-51" value="F" style="html=1;overflow=block;blockSpacing=1;whiteSpace=wrap;ellipse;fontSize=16.7;fontColor=#333333;spacing=3.8;strokeColor=#5e5e5e;strokeOpacity=100;rounded=1;absoluteArcSize=1;arcSize=9;strokeWidth=2.3;lucidId=pI.AXSO07Sbm;" vertex="1" parent="1">
          <mxGeometry x="-345" y="15" width="38" height="35" as="geometry" />
        </mxCell>
        <mxCell id="W3cXZW0rzUBnxX037Pdt-52" value="WatchGuard" style="html=1;overflow=block;blockSpacing=1;whiteSpace=wrap;fontSize=15;fontColor=#333333;spacing=3.8;strokeOpacity=0;fillOpacity=0;rounded=1;absoluteArcSize=1;arcSize=9;fillColor=#ffffff;strokeWidth=2.3;lucidId=PI.AY0ZUOWMM;" vertex="1" parent="1">
          <mxGeometry x="-646" y="-88" width="180" height="45" as="geometry" />
        </mxCell>
        <mxCell id="W3cXZW0rzUBnxX037Pdt-53" value="" style="html=1;overflow=block;blockSpacing=1;whiteSpace=wrap;ellipse;fontSize=13;spacing=3.8;strokeColor=#5e5e5e;strokeOpacity=100;rounded=1;absoluteArcSize=1;arcSize=9;strokeWidth=2.3;lucidId=iJ.Aom7jPu47;" vertex="1" parent="1">
          <mxGeometry x="-575" y="-50" width="38" height="35" as="geometry" />
        </mxCell>
        <mxCell id="W3cXZW0rzUBnxX037Pdt-54" value="User Page" style="html=1;overflow=block;blockSpacing=1;whiteSpace=wrap;fontSize=16.7;fontColor=#3a414a;spacing=3.8;strokeColor=#3a414a;strokeOpacity=100;rounded=1;absoluteArcSize=1;arcSize=9;strokeWidth=0.8;lucidId=WP.ARWj1bGUZ;" vertex="1" parent="1">
          <mxGeometry x="-607" y="825" width="315" height="150" as="geometry" />
        </mxCell>
        <mxCell id="W3cXZW0rzUBnxX037Pdt-55" value="Community Dashboard&#xa;&#xa;Feedback&#xa;&#xa;Help" style="html=1;overflow=block;blockSpacing=1;whiteSpace=wrap;fontSize=6.7;fontColor=#333333;spacing=3.8;strokeOpacity=0;fillOpacity=0;rounded=1;absoluteArcSize=1;arcSize=9;fillColor=#ffffff;strokeWidth=2.3;lucidId=3P.ALp3PDeBq;" vertex="1" parent="1">
          <mxGeometry x="-646" y="-9" width="180" height="48" as="geometry" />
        </mxCell>
        <mxCell id="W3cXZW0rzUBnxX037Pdt-56" value="HTTPS://&amp;lt;DOMAIN&amp;gt;/eventLog" style="html=1;overflow=block;blockSpacing=1;whiteSpace=wrap;fontSize=26.7;fontColor=#3a414a;spacing=3.8;strokeOpacity=0;fillOpacity=0;rounded=1;absoluteArcSize=1;arcSize=9;fillColor=#ffffff;strokeWidth=0.8;lucidId=gQ.AM4NUY-N9;" vertex="1" parent="1">
          <mxGeometry x="63" y="748" width="435" height="60" as="geometry" />
        </mxCell>
        <mxCell id="W3cXZW0rzUBnxX037Pdt-57" value="HTTPS://&amp;lt;DOMAIN&amp;gt;/postData" style="html=1;overflow=block;blockSpacing=1;whiteSpace=wrap;fontSize=26.7;fontColor=#3a414a;spacing=3.8;strokeOpacity=0;fillOpacity=0;rounded=1;absoluteArcSize=1;arcSize=9;fillColor=#ffffff;strokeWidth=0.8;lucidId=nQ.AImiTZD.T;" vertex="1" parent="1">
          <mxGeometry x="58" y="674" width="435" height="60" as="geometry" />
        </mxCell>
        <mxCell id="W3cXZW0rzUBnxX037Pdt-58" value="HTTPS://&amp;lt;DOMAIN&amp;gt;/community&#39;s" style="html=1;overflow=block;blockSpacing=1;whiteSpace=wrap;fontSize=26.7;fontColor=#3a414a;spacing=3.8;strokeOpacity=0;fillOpacity=0;rounded=1;absoluteArcSize=1;arcSize=9;fillColor=#ffffff;strokeWidth=0.8;lucidId=rQ.AjS-ZHtQy;" vertex="1" parent="1">
          <mxGeometry x="90" y="600" width="435" height="60" as="geometry" />
        </mxCell>
        <mxCell id="W3cXZW0rzUBnxX037Pdt-59" value="" style="html=1;overflow=block;blockSpacing=1;whiteSpace=wrap;fontSize=13;spacing=3.8;strokeColor=#5e5e5e;strokeOpacity=100;rounded=1;absoluteArcSize=1;arcSize=9;strokeWidth=2.3;lucidId=WT.AIUkh65n_;" vertex="1" parent="1">
          <mxGeometry x="-573" y="45" width="35" height="15" as="geometry" />
        </mxCell>
        <mxCell id="W3cXZW0rzUBnxX037Pdt-60" value="Logout" style="html=1;overflow=block;blockSpacing=1;whiteSpace=wrap;fontSize=6.7;fontColor=#333333;spacing=3.8;strokeOpacity=0;fillOpacity=0;rounded=1;absoluteArcSize=1;arcSize=9;fillColor=#ffffff;strokeWidth=2.3;lucidId=hU.A_h17zhpN;" vertex="1" parent="1">
          <mxGeometry x="-645" y="35" width="180" height="35" as="geometry" />
        </mxCell>
      </root>
    </mxGraphModel>
  </diagram>
</mxfile>
